<svg viewBox="0 0 800 600" height="600" width="800" xmlns="http://www.w3.org/2000/svg" version="1.1"><g transform-origin="center" transform="scale(1, 1) rotate(0)"><rect x="0" y="0" width="800" height="600" fill="#00243800"></rect><linearGradient id="linear-gradient-r9"><stop offset="0%" stop-color="#004bffff" stop-opacity="100%"></stop><stop offset="100%" stop-color="#00ffc7ff" stop-opacity="100%"></stop></linearGradient><path d="M0 471.7353118099272 0,471.7353118099272 C 10.666666666666668,471.40321968764067 32,465.5902084128559 53.333333333333336,470.07485119849446 C 74.66666666666667,474.55949398413304 85.33333333333334,494.87962608724837 106.66666666666667,494.1585257381201 C 128,493.4374253889918 138.66666666666666,475.89137484773994 160,466.4693494528532 C 181.33333333333334,457.0473240579664 192,463.10510009959336 213.33333333333334,447.0483987636864 C 234.66666666666669,430.99169742777946 245.33333333333334,394.9344529041648 266.6666666666667,386.1858427733183 C 288,377.4372326424718 298.6666666666667,398.876615883559 320,403.3053481094539 C 341.3333333333333,407.73408033534884 352.00000000000006,400.14340268820524 373.33333333333337,408.3295039027929 C 394.6666666666667,416.5156051173806 405.33333333333337,436.82737365096807 426.6666666666667,444.23585418239236 C 448,451.64433471381665 458.6666666666667,450.4356637635827 480,445.37190655991435 C 501.3333333333333,440.308149356246 512,417.6209291391075 533.3333333333334,418.9170681640506 C 554.6666666666667,420.2132071889937 565.3333333333334,448.06836648106577 586.6666666666667,451.8526016846299 C 608.0000000000001,455.63683688819407 618.6666666666666,445.61671271055934 640,437.8382441818714 C 661.3333333333334,430.05977565318346 672,408.61646936982874 693.3333333333334,412.96025904119017 C 714.6666666666667,417.3040487125516 725.3333333333334,449.1543253365159 746.6666666666667,459.55719253867863 C 768.0000000000001,469.96005974084136 789.3333333333334,463.8911145493388 800,464.97459505200385" fill="none" stroke-linecap="round" stroke-width="7" style="transition: all 0.4s cubic-bezier(0.16, 1, 0.3, 1) 0s;" stroke="url(#linear-gradient-r9)"></path><path d="M0 512.4239368920526 0,512.4239368920526 C 10.666666666666668,517.6746118817728 32,539.4633761851986 53.333333333333336,538.6773118406534 C 74.66666666666667,537.8912474961081 85.33333333333334,518.7644716808696 106.66666666666667,508.49361516932646 C 128,498.2227586577833 138.66666666666666,504.826280288746 160,487.32302928293745 C 181.33333333333334,469.81977827712893 192,430.51413334598146 213.33333333333334,420.9773601402839 C 234.66666666666669,411.44058693458635 245.33333333333334,434.8114461433391 266.6666666666667,439.6391632544498 C 288,444.4668803655605 298.6666666666667,436.19235788534087 320,445.11594569583735 C 341.3333333333333,454.03953350633384 352.00000000000006,476.18119109700126 373.33333333333337,484.2571023069322 C 394.6666666666667,492.33301351686316 405.33333333333337,491.0154532918334 426.6666666666667,485.4955017454922 C 448,479.97555019915103 458.6666666666667,455.24443626875683 480,456.6573445752263 C 501.3333333333333,458.07025288169586 512,488.4348859838645 533.3333333333334,492.56004327783984 C 554.6666666666667,496.6852005718152 565.3333333333334,485.76236250430344 586.6666666666667,477.28313104510306 C 608.0000000000001,468.8038995859027 618.6666666666666,445.4287639076511 640,450.1638859818379 C 661.3333333333334,454.8990080560247 672,489.61867897043624 693.3333333333334,500.95874141603707 C 714.6666666666667,512.2988038616379 725.3333333333334,512.884725036621 746.6666666666667,506.864198209842 C 768.0000000000001,500.843671383063 789.3333333333334,478.0577254676819 800,470.85610728214186" fill="none" stroke-linecap="round" stroke-width="7" style="transition: all 0.4s cubic-bezier(0.16, 1, 0.3, 1) 0s;" stroke="url(#linear-gradient-r9)"></path><path d="M0 583.1960979431867 0,583.1960979431867 C 10.666666666666666,576.6604545317093 32,561.6375685139994 53.333333333333336,550.5178808857997 C 74.66666666666667,539.3981932576 85.33333333333334,546.5474604778985 106.66666666666667,527.5976598021884 C 128,508.6478591264784 138.66666666666666,466.09381378779807 160,455.7688775072495 C 181.33333333333334,445.44394122670093 192,470.74627640311917 213.33333333333334,475.9729783994456 C 234.66666666666669,481.199680395772 245.33333333333337,472.24131308247644 266.6666666666667,481.90238748888174 C 288,491.56346189528705 298.6666666666667,515.5350085430345 320,524.2783504314721 C 341.3333333333333,533.0216923199098 352.00000000000006,531.5952428200841 373.33333333333337,525.6190969310701 C 394.6666666666667,519.6429510420561 405.33333333333337,492.8679433984061 426.6666666666667,494.39762098640205 C 448,495.927298574398 458.66666666666663,528.8014054866633 480,533.2674848710498 C 501.33333333333337,537.7335642554364 512,525.9080122980477 533.3333333333334,516.7280179083348 C 554.6666666666667,507.54802351862196 565.3333333333334,482.2410584454735 586.6666666666667,487.3675129224857 C 608.0000000000001,492.4939673994978 618.6666666666666,530.0830326043566 640,542.3602902933956 C 661.3333333333334,554.6375479824345 672,555.2718923950196 693.3333333333334,548.7538013676802 C 714.6666666666667,542.2357103403409 725.3333333333334,527.0578129832446 746.6666666666667,509.769835156699 C 768.0000000000001,492.4818573301534 789.3333333333334,471.80509681930147 800,462.31391223495206" fill="none" stroke-linecap="round" stroke-width="7" style="transition: all 0.4s cubic-bezier(0.16, 1, 0.3, 1) 0s;" stroke="url(#linear-gradient-r9)"></path></g></svg>