<svg xmlns="http://www.w3.org/2000/svg" height="32" width="32" xmlns:v="https://vecta.io/nano"><circle cx="16" cy="16" fill="#fff" r="14.5"/><path d="M30.5 16c0-1.339-.196-2.631-.536-3.862C27.83 6.787 22.612 3 16.5 3 8.492 3 2 9.492 2 17.5c0 1.339.196 2.631.536 3.862C4.67 26.713 9.888 30.5 16 30.5c8.008 0 14.5-6.492 14.5-14.5z" fill="#80d8ff"/><path d="M20.95 29.614c-.654.237-1.349-.25-1.347-.946l.01-3.69c0-1.358-.464-2.246-.984-2.696 3.23-.36 6.62-1.591 6.62-7.183 0-1.59-.561-2.889-1.491-3.907.15-.369.647-1.848-.144-3.853 0 0-1.215-.391-3.983 1.492-1.158-.323-2.399-.484-3.63-.49a13.85 13.85 0 0 0-3.63.49C9.601 6.949 8.383 7.34 8.383 7.34c-.788 2.004-.291 3.484-.141 3.853-.928 1.018-1.493 2.317-1.493 3.907 0 5.578 3.385 6.827 6.605 7.194-.415.364-.79 1.006-.921 1.946-.827.373-2.926 1.016-4.221-1.209 0 0-.766-1.397-2.22-1.5 0 0-1.417-.018-.1.885 0 0 .951.448 1.609 2.129 0 0 .851 2.832 4.885 1.952l.011 2.169c.003.694-.688 1.189-1.34.952-1.435-.521-2.765-1.261-3.949-2.18C9.565 29.35 12.646 30.5 16 30.5c3.279 0 6.294-1.102 8.724-2.938a14.49 14.49 0 0 1-3.774 2.052z" fill="#fff"/><g fill="#455a64"><path d="M11.393 30.176a1.47 1.47 0 0 1-.506-.089A14.94 14.94 0 0 1 1.015 15.33c.012-.275.232-.485.521-.478a.5.5 0 0 1 .478.521 13.94 13.94 0 0 0 9.214 13.772c.151.056.318.033.453-.063a.5.5 0 0 0 .217-.417l-.008-1.573c-3.927.561-4.857-2.375-4.867-2.406-.552-1.405-1.342-1.82-1.35-1.824-.342-.229-.996-.676-.81-1.262.167-.528.852-.563 1.136-.572 1.736.122 2.616 1.693 2.652 1.76.956 1.643 2.414 1.446 3.335 1.094.09-.452.239-.863.439-1.216-2.872-.486-6.176-1.973-6.176-7.568 0-1.531.479-2.88 1.424-4.016-.208-.674-.468-2.112.244-3.925a.5.5 0 0 1 .313-.293c.144-.047 1.473-.394 4.23 1.426a14.35 14.35 0 0 1 3.539-.448c1.234.006 2.423.157 3.543.448 2.756-1.82 4.08-1.473 4.226-1.426a.5.5 0 0 1 .312.292c.715 1.813.456 3.251.247 3.927.944 1.133 1.422 2.482 1.422 4.016 0 5.595-3.308 7.078-6.185 7.559.354.623.549 1.426.549 2.32l-.01 3.692c0 .166.077.315.214.412s.306.119.463.063C26.295 27.141 30 21.858 30 16a13.88 13.88 0 0 0-4.335-10.129c-2.794-2.667-6.462-4.037-10.336-3.855-.275.021-.509-.201-.523-.476a.5.5 0 0 1 .476-.523 14.89 14.89 0 0 1 11.073 4.131C29.351 8.007 31 11.861 31 16a15.04 15.04 0 0 1-9.878 14.084c-.463.167-.978.099-1.38-.185s-.64-.744-.638-1.233l.01-3.688c0-1.459-.567-2.107-.811-2.317a.5.5 0 0 1 .271-.875c3.054-.34 6.176-1.401 6.176-6.686 0-1.38-.458-2.582-1.36-3.569a.5.5 0 0 1-.094-.526c.139-.34.524-1.537-.042-3.198-.423.012-1.503.189-3.34 1.44-.122.083-.274.109-.416.068-1.084-.302-2.293-.465-3.499-.472-1.218.006-2.395.165-3.494.472-.141.042-.293.015-.416-.068-1.83-1.245-2.91-1.427-3.346-1.438-.563 1.661-.177 2.855-.039 3.196a.5.5 0 0 1-.094.525c-.904.991-1.362 2.192-1.362 3.57 0 5.282 3.115 6.35 6.162 6.697a.5.5 0 0 1 .273.872c-.224.197-.621.672-.756 1.64-.023.17-.133.316-.29.386-.75.338-3.316 1.237-4.858-1.413-.011-.019-.525-.921-1.444-1.186.326.218 1.077.852 1.631 2.265.043.133.808 2.409 4.313 1.646a.5.5 0 0 1 .607.485l.011 2.17a1.51 1.51 0 0 1-.641 1.239c-.256.181-.558.275-.863.275z"/><path d="M15.737 31C7.474 31 1 24.411 1 16c0-3.629 1.238-7.111 3.485-9.804a.5.5 0 1 1 .768.641C3.155 9.35 2 12.604 2 16c0 7.851 6.034 14 13.737 14C23.602 30 30 23.72 30 16S23.602 2 15.737 2c-2.441 0-4.812.62-6.858 1.792-.238.135-.545.053-.682-.186a.5.5 0 0 1 .185-.683C10.579 1.665 13.123 1 15.737 1 24.153 1 31 7.729 31 16s-6.847 15-15.263 15zM7.543 4.552a.5.5 0 0 1-.5.5h0a.5.5 0 0 1-.5-.5h0a.5.5 0 0 1 .5-.5h0a.5.5 0 0 1 .5.5h0z"/></g></svg>