<svg xmlns="http://www.w3.org/2000/svg" width="32" height="32" xmlns:v="https://vecta.io/nano"><path fill="#fff" d="M30.5 6.99c-1.065.485-2.213.813-3.416.959A6.08 6.08 0 0 0 29.7 4.58c-1.15.697-2.422 1.205-3.781 1.477a5.87 5.87 0 0 0-4.342-1.923c-3.283 0-5.947 2.728-5.947 6.092a6.22 6.22 0 0 0 .153 1.388c-4.944-.255-9.327-2.678-12.263-6.368-.512.902-.805 1.95-.805 3.066 0 2.113 1.051 3.978 2.647 5.07-.973-.03-1.893-.307-2.696-.76v.075c0 2.952 2.051 5.415 4.774 5.973a5.68 5.68 0 0 1-1.568.215c-.383 0-.757-.037-1.121-.108.758 2.42 2.954 4.182 5.558 4.229a11.76 11.76 0 0 1-7.389 2.61c-.48 0-.955-.028-1.42-.084 2.633 1.726 5.762 2.735 9.121 2.735 10.945 0 16.927-9.282 16.927-17.333a20.62 20.62 0 0 0-.015-.79c1.163-.859 2.173-1.932 2.967-3.154h0z"/><path fill="#80d8ff" d="M29.463 5.153c-1.136.706-2.199 2.135-3.543 2.404a5.87 5.87 0 0 0-4.342-1.923c-2.802 0-5.178 2.012-5.262 5.291a1.11 1.11 0 0 1-1.038 1.086c-2.588.146-9.224-.544-12.409-5.027a6.17 6.17 0 0 0-.155 1.328c0 2.113 1.051 3.978 2.647 5.07-.973-.03-1.893-.307-2.696-.76v.075c0 2.952 2.051 5.415 4.774 5.973a5.68 5.68 0 0 1-1.568.215c-.383 0-.757-.037-1.121-.108.758 2.42 2.954 4.182 5.558 4.229a11.76 11.76 0 0 1-7.389 2.61c-.48 0-.955-.028-1.42-.084 2.633 1.726 5.762 2.735 9.121 2.735 10.945 0 16.927-9.282 16.927-17.333a20.62 20.62 0 0 0-.015-.79 12.19 12.19 0 0 0 2.967-3.153c-1.065.485-2.213.813-3.416.959 1.058-.648 1.881-1.633 2.38-2.797z"/><g fill="#455a64"><path d="M10.621 28.767c-3.334 0-6.583-.974-9.395-2.817a.5.5 0 0 1-.196-.589.5.5 0 0 1 .53-.325 11.24 11.24 0 0 0 1.36.081c1.806 0 3.534-.417 5.136-1.24l.927-.532c-2.192-.509-4.004-2.166-4.709-4.417a.5.5 0 0 1 .328-.626.5.5 0 0 1 .626.328c.713 2.278 2.759 3.836 5.09 3.878a.5.5 0 0 1 .304.889c-.656.527-1.366.988-2.109 1.37-1.572.807-3.254 1.256-5.01 1.337 2.215 1.094 4.641 1.665 7.118 1.665 10.283 0 16.427-8.559 16.427-16.833a21.85 21.85 0 0 0-.014-.771.5.5 0 0 1 .203-.421c1.121-.828 2.079-1.846 2.845-3.023.15-.231.461-.299.691-.146a.5.5 0 0 1 .146.691 12.62 12.62 0 0 1-2.878 3.124l.007.546c0 8.763-6.518 17.831-17.427 17.831z"/><path d="M7.44 19.171a.5.5 0 0 1-.101-.01c-2.998-.614-5.174-3.333-5.174-6.463 0-.276.224-.538.5-.538s.5.186.5.462v.075c0 2.658 1.84 4.964 4.375 5.483a.5.5 0 0 1 .389.59.5.5 0 0 1-.489.401zm-2.079-5.289a.5.5 0 0 1-.282-.087c-1.794-1.228-2.865-3.278-2.865-5.483a6.73 6.73 0 0 1 .87-3.313.5.5 0 0 1 .396-.252c.171-.013.327.057.43.187 2.936 3.689 7.273 5.941 11.899 6.179a.5.5 0 0 1 .474.525c-.014.275-.261.483-.525.474-4.653-.24-9.03-2.397-12.126-5.951a5.75 5.75 0 0 0-.417 2.15c0 1.875.908 3.616 2.429 4.658a.5.5 0 0 1-.283.913zm10.285-3.601c-.012 0-.024 0-.036-.001a.5.5 0 0 1-.463-.534c.242-3.427 3.066-6.112 6.43-6.112a6.4 6.4 0 0 1 4.511 1.876c1.177-.266 2.304-.722 3.353-1.357a.5.5 0 0 1 .736.576c-.476 1.524-1.482 2.819-2.832 3.646a.5.5 0 1 1-.523-.853A5.55 5.55 0 0 0 28.645 5.7c-.843.381-1.722.665-2.628.846a.5.5 0 0 1-.467-.153c-1.022-1.119-2.471-1.76-3.973-1.76-2.841 0-5.228 2.276-5.433 5.182a.5.5 0 0 1-.498.466z"/></g></svg>