<svg xmlns="http://www.w3.org/2000/svg" height="32" width="32" xmlns:v="https://vecta.io/nano"><path d="M4.983 8.375H4.94c-2.087 0-3.44-1.367-3.44-3.101 0-1.767 1.393-3.106 3.523-3.106S8.459 3.503 8.5 5.269c0 1.733-1.35 3.106-3.517 3.106z" fill="#fff"/><path d="M8.5 5.27c-.025-1.086-.533-2.006-1.413-2.556l-.564-.045C4.393 2.669 3 4.008 3 5.775c0 1.072.52 2.001 1.408 2.556l.532.044h.043C7.15 8.375 8.5 7.002 8.5 5.27z" fill="#80d8ff"/><path d="M4.983 8.875H4.94C2.657 8.875 1 7.361 1 5.275s1.692-3.606 4.023-3.606c2.292 0 3.928 1.476 3.977 3.589 0 2.101-1.689 3.617-4.017 3.617zm.04-6.206C3.243 2.669 2 3.741 2 5.275s1.209 2.601 2.94 2.601h.043C6.76 7.875 8 6.804 8 5.27c-.037-1.576-1.205-2.601-2.977-2.601z" fill="#455a64"/><path fill="#fff" d="M2.5 10.5h5v18h-5z"/><path d="M7.5 28.5H4V12a1 1 0 0 1 1-1h2.5v17.5z" fill="#80d8ff"/><path d="M7.5 29h-5a.5.5 0 0 1-.5-.5v-18a.5.5 0 0 1 .5-.5h5a.5.5 0 0 1 .5.5v18a.5.5 0 0 1-.5.5zM3 28h4V11H3v17z" fill="#455a64"/><path d="M23.5 10.5c-2.457 0-4.632 1.188-6 3.014V10.5h-6v18H16h1.5V19a3.5 3.5 0 1 1 7 0v9.5h6v-11a7 7 0 0 0-7-7z" fill="#fff"/><path d="M23.724 12.005c-1.884.069-3.586.835-4.866 2.046-.326.308-.858.1-.858-.348v-.784l-.5.595V11H14a1 1 0 0 0-1 1v16.5h3 1.5V19a3.5 3.5 0 0 1 3.5-3.5c1.077 0 2.029.498 2.672 1.264.807.641 1.328 1.625 1.328 2.736v9h5.5v-11a6.87 6.87 0 0 0-.094-1.09c-1.118-2.627-3.698-4.514-6.682-4.405z" fill="#80d8ff"/><path d="M30.5 29h-6a.5.5 0 0 1-.5-.5V19c0-1.654-1.346-3-3-3s-3 1.346-3 3v9.5a.5.5 0 0 1-.5.5h-6a.5.5 0 0 1-.5-.5v-18a.5.5 0 0 1 .5-.5h6a.5.5 0 0 1 .5.5v3.014a.5.5 0 1 1-1 0V11h-5v17h5v-9c0-2.206 1.794-4 4-4s4 1.794 4 4v9h5V17.5a6.51 6.51 0 0 0-6.5-6.5 6.95 6.95 0 0 0-3.871 1.173.5.5 0 0 1-.693-.138.5.5 0 0 1 .139-.693C20.388 10.464 21.918 10 23.5 10a7.51 7.51 0 0 1 7.5 7.5v11a.5.5 0 0 1-.5.5z" fill="#455a64"/></svg>